<?xml version="1.0" encoding="UTF-8" standalone="no"?>
<!-- Roman Inozemtsev: https://github.com/mir-one/  -->

<svg
   xmlns:dc="http://purl.org/dc/elements/1.1/"
   xmlns:cc="http://creativecommons.org/ns#"
   xmlns:rdf="http://www.w3.org/1999/02/22-rdf-syntax-ns#"
   xmlns:svg="http://www.w3.org/2000/svg"
   xmlns="http://www.w3.org/2000/svg"
   xmlns:sodipodi="http://sodipodi.sourceforge.net/DTD/sodipodi-0.dtd"
   xmlns:inkscape="http://www.inkscape.org/namespaces/inkscape"
   version="1.1"
   id="Layer_2"
   x="0px"
   y="0px"
   viewBox="0 0 24 24"
   style="enable-background:new 0 0 24 24;"
   xml:space="preserve"
   sodipodi:docname="tabs-iconset-leasing.svg"
   inkscape:version="0.92.2pre0 (973e216, 2017-07-25)"><metadata
     id="metadata21"><rdf:RDF><cc:Work
         rdf:about=""><dc:format>image/svg+xml</dc:format><dc:type
           rdf:resource="http://purl.org/dc/dcmitype/StillImage" /></cc:Work></rdf:RDF></metadata><defs
     id="defs19" /><sodipodi:namedview
     pagecolor="#ffffff"
     bordercolor="#666666"
     borderopacity="1"
     objecttolerance="10"
     gridtolerance="10"
     guidetolerance="10"
     inkscape:pageopacity="0"
     inkscape:pageshadow="2"
     inkscape:window-width="640"
     inkscape:window-height="480"
     id="namedview17"
     showgrid="false"
     inkscape:zoom="9.8333333"
     inkscape:cx="6.7618061"
     inkscape:cy="12"
     inkscape:window-x="0"
     inkscape:window-y="0"
     inkscape:window-maximized="0"
     inkscape:current-layer="Layer_2" /><style
     type="text/css"
     id="style2">
	.st0{fill:#4059A7;}
	.st1{fill:#FFFFFF;}
</style><circle
     class="st0"
     cx="12"
     cy="12"
     r="12"
     id="circle4"
     style="fill:#39b44a;fill-opacity:1" /><circle
     class="st1"
     cx="12"
     cy="12"
     r="11"
     id="circle6" /><ellipse
     transform="matrix(0.7071 -0.7071 0.7071 0.7071 -4.9705 11.9999)"
     class="st1"
     cx="12"
     cy="12"
     rx="10.4"
     ry="10.4"
     id="ellipse8"
     style="fill:#ffffff" /><g
     id="g14"
     style="fill:#39b44a;fill-opacity:1"><path
       class="st0"
       d="m 12,4.6 c 0,0 -5.2,5.7 -5.2,9.6 0,2.9 2.4,5.2 5.2,5.2 2.8,0 5.2,-2.4 5.2,-5.2 C 17.2,10.3 12,4.6 12,4.6 Z"
       id="path10"
       style="fill:#39b44a;fill-opacity:1"
       inkscape:connector-curvature="0" /><polygon
       class="st1"
       points="12,11 10.3,11 8.9,13.5 8.9,13.6 8.9,13.6 10.3,16.2 12,16.2 13.7,16.2 15.1,13.6 15.1,13.5 13.7,11 "
       id="polygon12"
       style="fill:#39b44a;fill-opacity:1" /></g><style
     id="style95"
     type="text/css">
	.st0{fill:#FFFFFF;}
	.st1{fill:#39B44A;}
	.st2{fill:#215F30;}
	.st3{fill:#58595B;}
	.st4{fill:#F9EE5D;}
</style><g
     id="g117"
     transform="matrix(0.15279497,0,0,0.15279497,6.8228812,8.8288523)"
     style="fill:#ffffff;fill-opacity:1"><path
       id="path113"
       d="m 36.1,10.8 c 1.1,0.2 2.1,0.5 3.1,0.9 2,0.9 3.8,2.1 5.4,3.6 2.7,2.6 4.5,5.8 5.8,9.3 0.7,2.1 1.2,4.2 1.4,6.5 0.4,4.2 0,8.2 -1.3,12.1 -1,3 -2.5,5.7 -4.5,8.1 -1.9,2.2 -4.1,3.9 -6.8,5 -2.1,0.8 -4.3,1.2 -6.5,1.1 -0.4,0 -0.8,-0.1 -1.1,-0.1 -0.1,0 -0.2,-0.1 -0.2,-0.2 C 31.2,56 31,55 30.9,53.9 c -0.2,-1.4 -0.2,-2.8 -0.2,-4.1 0,-3 0.5,-5.9 1.4,-8.8 0.7,-2.2 1.7,-4.3 2.9,-6.3 1.6,-2.6 2.7,-5.3 3.2,-8.3 0.4,-2 0.5,-4.1 0.3,-6.1 -0.2,-3.3 -1,-6.4 -2.2,-9.4 -0.1,0 -0.2,0 -0.2,-0.1 z"
       class="st4"
       inkscape:connector-curvature="0"
       style="fill:#ffffff;fill-opacity:1" /><path
       id="path115"
       d="M 28,56.3 C 27.4,56 26.8,55.8 26.2,55.4 23.6,54 21.6,52 19.9,49.6 c -1.8,-2.5 -3,-5.4 -3.8,-8.4 -0.5,-2 -0.8,-4 -0.9,-6 -0.2,-3.6 0.3,-7.1 1.4,-10.5 1,-3 2.5,-5.7 4.5,-8.1 1.9,-2.2 4.1,-3.9 6.8,-5 1.4,-0.6 2.9,-0.9 4.4,-1.1 0.3,0 0.3,0 0.4,0.2 1.1,2.4 1.9,5 2.3,7.6 0.3,2 0.4,4 0.2,6 -0.3,3.1 -1.3,6 -3,8.7 -2,3.2 -3.4,6.7 -4.1,10.5 -0.4,1.9 -0.6,3.9 -0.6,5.9 -0.1,2.3 0.1,4.5 0.5,6.9 0,-0.1 0,-0.1 0,0 z"
       class="st4"
       inkscape:connector-curvature="0"
       style="fill:#ffffff;fill-opacity:1" /></g></svg>