<?xml version="1.0" encoding="UTF-8" standalone="no"?>
<!-- Roman Inozemtsev: https://github.com/mir-one/  -->

<svg
   xmlns:dc="http://purl.org/dc/elements/1.1/"
   xmlns:cc="http://creativecommons.org/ns#"
   xmlns:rdf="http://www.w3.org/1999/02/22-rdf-syntax-ns#"
   xmlns:svg="http://www.w3.org/2000/svg"
   xmlns="http://www.w3.org/2000/svg"
   xmlns:sodipodi="http://sodipodi.sourceforge.net/DTD/sodipodi-0.dtd"
   xmlns:inkscape="http://www.inkscape.org/namespaces/inkscape"
   version="1.1"
   id="Слой_1"
   shape-rendering="geometricPrecision"
   text-rendering="geometricPrecision"
   image-rendering="optimizeQuality"
   x="0px"
   y="0px"
   viewBox="0 0 24 24"
   style="enable-background:new 0 0 24 24;"
   xml:space="preserve"
   sodipodi:docname="tabs-iconset-tokens.svg"
   inkscape:version="0.92.2pre0 (973e216, 2017-07-25)"><metadata
     id="metadata23"><rdf:RDF><cc:Work
         rdf:about=""><dc:format>image/svg+xml</dc:format><dc:type
           rdf:resource="http://purl.org/dc/dcmitype/StillImage" /></cc:Work></rdf:RDF></metadata><defs
     id="defs21" /><sodipodi:namedview
     pagecolor="#ffffff"
     bordercolor="#666666"
     borderopacity="1"
     objecttolerance="10"
     gridtolerance="10"
     guidetolerance="10"
     inkscape:pageopacity="0"
     inkscape:pageshadow="2"
     inkscape:window-width="640"
     inkscape:window-height="480"
     id="namedview19"
     showgrid="false"
     inkscape:zoom="9.8333333"
     inkscape:cx="12"
     inkscape:cy="12"
     inkscape:window-x="0"
     inkscape:window-y="0"
     inkscape:window-maximized="0"
     inkscape:current-layer="Слой_1" /><style
     type="text/css"
     id="style2">
	.st0{fill:#3F58A7;}
	.st1{fill:#FFFFFF;}
</style><circle
     class="st0"
     cx="12"
     cy="12"
     r="12"
     id="circle4"
     style="fill:#3bb54a;fill-opacity:1" /><circle
     class="st1"
     cx="12"
     cy="12"
     r="11.1"
     id="circle6" /><ellipse
     transform="matrix(0.7071 -0.7071 0.7071 0.7071 -4.9668 11.9999)"
     class="st1"
     cx="12"
     cy="12"
     rx="10.4"
     ry="10.4"
     id="ellipse8" /><g
     id="g16"
     style="fill:#3bb54a;fill-opacity:1"><path
       class="st0"
       d="M8.2,11.4c0.1,3.6,3.3,6,6.8,5.1c-1,1.4-2.3,2-3.9,1.8c-1.8-0.2-3-1.1-3.6-2.8C6.9,14.2,7.3,12.3,8.2,11.4z"
       id="path10"
       style="fill:#3bb54a;fill-opacity:1" /><path
       class="st0"
       d="M9.6,8.4C9.1,8.8,8.8,9.2,8.3,9.6c-1.1,0.8-1.6,1.9-1.6,3.2c0,0.8,0.1,1.7,0.1,2.6c-1-1.4-1.2-2.9-0.6-4.5   c0.6-1.4,1.7-2.3,3.2-2.6C9.5,8.3,9.5,8.3,9.6,8.4z"
       id="path12"
       style="fill:#3bb54a;fill-opacity:1" /><path
       class="st0"
       d="M13.5,6.9c-2.6,0-4.6,2.1-4.6,4.6c0,2.6,2.1,4.6,4.6,4.6c2.6,0,4.6-2.1,4.6-4.6S16,6.9,13.5,6.9z M15.6,10.2   H14v4.3h-1.1v-4.3h-1.5V9.3h4.2C15.6,9.3,15.6,10.2,15.6,10.2z"
       id="path14"
       style="fill:#3bb54a;fill-opacity:1" /></g><style
     id="style25"
     type="text/css">
	.st0{fill:#3BB54A;}
	.st1{fill:#FFFFFF;}
	.st2{fill:none;}
</style></svg>